Coordinates
version=1
nRows=5
nColumns=63
inDegrees=yes

Units are S.I. units (second, meters, Newtons, ...)
If the header above contains a line with 'inDegrees', this indicates whether rotational values are in degrees (yes) or radians (no).

endheader
time	pelvis_tilt	pelvis_list	pelvis_rotation	pelvis_tx	pelvis_ty	pelvis_tz	hip_flexion_r	hip_adduction_r	hip_rotation_r	knee_angle_r	knee_angle_r_beta	ankle_angle_r	subtalar_angle_r	mtp_angle_r	hip_flexion_l	hip_adduction_l	hip_rotation_l	knee_angle_l	knee_angle_l_beta	ankle_angle_l	subtalar_angle_l	mtp_angle_l	L5_S1_Flex_Ext	L5_S1_Lat_Bending	L5_S1_axial_rotation	L4_L5_Flex_Ext	L4_L5_Lat_Bending	L4_L5_axial_rotation	L3_L4_Flex_Ext	L3_L4_Lat_Bending	L3_L4_axial_rotation	L2_L3_Flex_Ext	L2_L3_Lat_Bending	L2_L3_axial_rotation	L1_L2_Flex_Ext	L1_L2_Lat_Bending	L1_L2_axial_rotation	L1_T12_Flex_Ext	L1_T12_Lat_Bending	L1_T12_axial_rotation	Abs_r3	Abs_r2	Abs_r1	Abs_t1	Abs_t2	neck_flexion	neck_bending	neck_rotation	arm_flex_r	arm_add_r	arm_rot_r	elbow_flex_r	pro_sup_r	wrist_flex_r	wrist_dev_r	arm_flex_l	arm_add_l	arm_rot_l	elbow_flex_l	pro_sup_l	wrist_flex_l	wrist_dev_l
      2.68627451	    -12.31720795	    -21.72909522	     80.89575733	      0.29042257	      0.61612037	      0.89988534	     40.25332033	     -1.18916072	     11.24418133	     32.46440421	      0.56661074	     31.25596778	    -17.34399740	      0.00000000	     39.94999996	      0.15835564	    -12.73085498	     37.51616042	      0.65478052	     38.23766421	     -3.25039610	      0.00000000	      0.19787226	     -0.02634568	      0.26625159	      0.36746858	     -0.03503975	      0.28289232	      0.32508434	     -0.06405689	      0.28289232	      0.22614821	     -0.06405689	      0.23297015	      0.18374418	     -0.05372411	      0.21632942	      0.11306421	     -0.04080946	      0.19968870	      1.41338178	     -0.29802760	      1.48081149	      0.00000000	      0.00000000	     27.96463513	     -0.53740894	     -9.94848382	     22.62966803	    -16.86805147	      3.87169479	     86.82250931	     88.17511369	     -9.93012877	     15.68803478	     16.65231771	    -17.78572893	     25.72353738	     77.50421841	     88.16675691	      8.57410243	     14.34704701
      2.70588235	    -12.64509927	    -23.00615235	     80.62479666	      0.28999389	      0.60594618	      0.90524806	     43.25303884	     -0.83802482	     11.46634479	     34.83037636	      0.60790475	     32.92685822	    -17.26964490	      0.00000000	     43.37430883	     -0.14205259	    -12.35612090	     40.56715631	      0.70803045	     40.25145222	     -4.27185163	      0.00000000	      0.24500386	     -0.06280777	      0.27453152	      0.45499667	     -0.08353433	      0.29168974	      0.40251684	     -0.15271081	      0.29168974	      0.28001491	     -0.15271081	      0.24021508	      0.22751058	     -0.12807760	      0.22305686	      0.13999521	     -0.09728923	      0.20589864	      1.75003807	     -0.71049404	      1.52686195	      0.00000000	      0.00000000	     28.07468092	     -1.39416521	     -9.76310685	     23.67431220	    -15.92986462	      4.26911386	     88.52036464	     87.99276459	     -9.71765656	     16.31340271	     18.30550092	    -17.85242544	     25.03173819	     79.03310078	     88.30371896	      9.68738594	     12.70414433
      2.72549020	    -13.04458032	    -24.25649916	     80.24306876	      0.28925936	      0.59547003	      0.91085925	     46.30256106	     -0.46433332	     11.87462068	     37.32192283	      0.65139044	     34.74181622	    -16.97059742	      0.00000000	     46.78791209	     -0.31386914	    -11.85733028	     43.54427661	      0.75999100	     41.93242040	     -5.64422517	      0.00000000	      0.29515068	     -0.09754213	      0.29093416	      0.54812433	     -0.12973104	      0.30911754	      0.48490305	     -0.23716395	      0.30911754	      0.33732771	     -0.23716395	      0.25456739	      0.27407692	     -0.19890792	      0.23638400	      0.16864910	     -0.15109277	      0.21820062	      2.10823179	     -1.10341613	      1.61808851	      0.00000000	      0.00000000	     28.17696389	     -2.01891889	     -9.32382806	     24.91008707	    -14.94223010	      4.48263244	     90.08754930	     87.67383244	     -9.20145783	     17.89031487	     19.47402158	    -17.32430102	     23.55750500	     80.11209479	     88.37955243	     10.91840431	      9.44718152
      2.74509804	    -13.31047868	    -25.34024622	     79.97070485	      0.28816751	      0.58518084	      0.91684474	     49.19994674	     -0.04196979	     12.18761564	     39.94259080	      0.69712972	     36.17648857	    -16.81784616	      0.00000000	     49.98201367	     -0.61527471	    -11.53864920	     46.47473813	      0.81113720	     43.38441649	     -6.41879050	      0.00000000	      0.32274070	     -0.11790104	      0.29733507	      0.59936176	     -0.15680838	      0.31591852	      0.53023070	     -0.28666459	      0.31591852	      0.36886035	     -0.28666459	      0.26016819	      0.29969702	     -0.24042380	      0.24158475	      0.18441404	     -0.18262871	      0.22300131	      2.30530456	     -1.33372014	      1.65368848	      0.00000000	      0.00000000	     28.26487442	     -2.22905186	     -9.11103300	     26.32419322	    -14.12342297	      4.70920976	     91.08374125	     87.17472915	     -8.77195054	     18.64926003	     20.59345566	    -16.58575714	     22.21403528	     81.46194519	     88.10015400	     10.86601423	      7.80850020
      2.76470588	    -13.76604323	    -26.57833365	     79.54458397	      0.28718599	      0.57485661	      0.92248753	     52.17451363	      0.28402635	     12.51253243	     42.44232875	      0.74075838	     37.27812275	    -16.53870806	      0.00000000	     53.17829392	     -0.80739486	    -11.29130901	     49.13657479	      0.85759501	     44.45700762	     -7.32339680	      0.00000000	      0.41147538	     -0.14695657	      0.30582257	      0.76415092	     -0.19545224	      0.32493648	      0.67601290	     -0.35731021	      0.32493648	      0.47027521	     -0.35731021	      0.26759475	      0.38209604	     -0.29967384	      0.24848084	      0.23511703	     -0.22763573	      0.22936693	      2.93912747	     -1.66240213	      1.70089340	      0.00000000	      0.00000000	     28.32694887	     -2.12899991	     -8.30647424	     27.43048851	    -13.23132320	      4.70399217	     91.88681142	     86.13536454	     -8.08999679	     19.93861323	     21.23450594	    -15.61674313	     20.56953639	     82.73119077	     87.40430950	     10.33722850	      6.74998614
